<svg xmlns="http://www.w3.org/2000/svg" viewBox="0 0 15 15.386"><g fill-rule="evenodd" clip-rule="evenodd" fill="#80222A"><path d="M11.055 15.378c-.572.047-1.093-.143-1.545-.432-.692-.442-1.443-.444-2.203-.413-.442.019-.856.167-1.247.405-.436.266-.914.42-1.442.416-.469-.004-.93-.018-1.35-.253-.473-.266-.719-.668-.766-1.216-.049-.578.172-1.061.462-1.526.403-.646.801-1.296 1.224-1.93.44-.661.929-1.291 1.52-1.826a2.453 2.453 0 0 1 1.377-.63c.301-.036.605-.091.904-.072.699.044 1.376.209 1.883.719.403.405.771.854 1.105 1.317a48.39 48.39 0 0 1 1.491 2.214c.247.386.48.784.564 1.252.16.888-.312 1.645-1.177 1.862-.259.066-.533.078-.8.113zM7.816 3.313c.005-.757.149-1.476.505-2.142.254-.473.595-.867 1.111-1.08.464-.191 1.135-.053 1.515.284.639.567.919 1.302 1.06 2.115a4.698 4.698 0 0 1-.239 2.502c-.211.557-.513 1.053-1.042 1.371-.576.347-1.211.291-1.731-.127-.635-.509-.917-1.214-1.068-1.983-.06-.309-.075-.626-.111-.94zM7.187 3.223c-.018.915-.175 1.706-.633 2.415-.335.519-.779.911-1.419.951-.427.027-.816-.137-1.135-.44-.58-.55-.876-1.24-.978-2.019-.046-.358-.093-.723-.075-1.081.045-.915.277-1.781.908-2.477.759-.836 1.853-.723 2.514.125.465.597.703 1.268.77 2.011l.048.515zM12.453 9.867c-.566.032-1.057-.419-1.19-.968-.269-1.103.03-2.082.661-2.991.256-.369.579-.651.961-.876.408-.24.84-.328 1.288-.15.468.186.687.583.771 1.05.198 1.104-.136 2.071-.801 2.942-.356.467-.799.816-1.383.954-.1.024-.205.026-.307.039zM3.845 8.205c.015.391-.068.807-.328 1.171-.331.463-.796.552-1.243.456-.644-.138-1.105-.556-1.488-1.065a3.96 3.96 0 0 1-.737-1.728c-.09-.523-.067-1.052.171-1.545.309-.638.988-.868 1.642-.589.69.294 1.156.811 1.508 1.451.308.559.489 1.154.475 1.849z"/></g></svg>