<svg xmlns="http://www.w3.org/2000/svg" viewBox="0 0 15 16.096"><path fill="#BF343F" d="M0 4.879a5.147 5.147 0 0 1 .534-2.341c.197-.406.438-.798.777-1.108.445-.408.884-.832 1.364-1.196.491-.374.985-.277 1.44.131.507.452.844 1.032 1.188 1.603.2.333.386.678.53 1.037.318.785.187 1.482-.536 2.039-.33.254-.666.506-.972.788-.316.29-.445.654-.373 1.1.119.725.495 1.317.922 1.881.354.466.742.904 1.121 1.351.522.615 1.118 1.152 1.833 1.529.479.254.988.342 1.475-.018.059-.043.109-.098.165-.146.376-.334.733-.691 1.132-.998.477-.367 1.018-.348 1.549-.121.52.223.953.574 1.371.947.27.24.559.463.809.723.277.293.551.592.645 1.014.078.357-.01.672-.254.902-.467.445-.941.889-1.461 1.266-.6.438-1.295.701-2.045.773-.275.027-.553.066-.828.059a6.225 6.225 0 0 1-2.112-.434 8.31 8.31 0 0 1-1.952-1.059 17.655 17.655 0 0 1-1.141-.898c-.37-.322-.736-.65-1.069-1.01a32.526 32.526 0 0 1-1.44-1.662 19.908 19.908 0 0 1-1.009-1.385C1.064 8.758.591 7.806.294 6.777.172 6.36.119 5.923.05 5.494.017 5.291.017 5.085 0 4.879z"/></svg>